<svg xmlns="http://www.w3.org/2000/svg">
  <symbol class="icon-fill" id="mecha-stilts" viewBox="0 0 256 256">
    <path d="M121.4 157.4h13.2v13.04h-13.2zm6.6-86.3c-24.2 0-44.5 14.7-45.5 41.4h91c-1-26.7-21.3-41.4-45.5-41.4zm10.8 86.3h20.7v13.04h-20.7zm-59.6 0h13.2v13.04H79.2zm17.3 0h20.7v13.04H96.5zm-29.8-4.2h122.6v-36.6H66.7zm60.3-14h50.5a2.1 2.1 0 0 1 0 4.1H127a2.1 2.1 0 1 1 0-4.1zm36.6 18.2h13.2v13.04h-13.2z"/>
    <path d="M128 2L18.9 65v126L128 254l109.1-63V65zm65.4 153.3a1.9 1.9 0 0 1-2.1 2.1H181v13h10.3a2.1 2.1 0 0 1 0 4.2H64.7a2.1 2.1 0 0 1 0-4.2H75v-13H64.7a1.9 1.9 0 0 1-2.1-2.1v-40.8a1.9 1.9 0 0 1 2.1-2h13.6c1.1-29.4 23-45.6 49.7-45.6s48.6 16.2 49.7 45.6h13.6a1.9 1.9 0 0 1 2.1 2z"/>
  </symbol>
  <symbol class="icon-fill" id="super-domes" viewBox="0 0 256 256">
    <path d="M125.9 127.8V86l-29.8 41.8h29.8zm-2-46c-26.5 1.7-48.7 20.9-55.1 46H91zm-53.6 65.6H126v22.97H70.3zm59.8-65.8v46.2h57.1a61.6 61.6 0 0 0-57.1-46.2zm13.4 65.8h42.2v22.97h-42.2zm-13.4 0h9.3v22.97h-9.3z"/>
    <path d="M128 2L18.9 65v126L128 254l109.1-63V65zm89.2 145.4h-27.3v25.1a2.1 2.1 0 0 1-2.1 2.1H68.2a2 2 0 0 1-2.1-2.1v-25.1H38.8a2.1 2.1 0 1 1 0-4.1h15.5v-13.4a2 2 0 0 1 2.1-2.1h8.1a65.6 65.6 0 0 1 63.3-50.3c.2-.2.4-.2.8 0a65.3 65.3 0 0 1 62.9 50.3h8.1a2 2 0 0 1 2.1 2.1v13.4h15.5a2.1 2.1 0 1 1 0 4.1z"/>
    <path d="M58.5 131.9h139.1v11.38H58.5z"/>
  </symbol>
  <symbol class="icon-fill" id="space-bubbles" viewBox="0 0 256 256">
    <path d="M72.6 134.6h113.2v10.76H72.6zm98.9-4.1a52.1 52.1 0 0 0 2.5-15.7 44.8 44.8 0 0 0-89.6 0c0 5.3.4 10.9 2.4 15.7zm-84.4 39.9h28.1l-8.5-10.3-19.6 10.3zm71.1-20.9l-6.2 7.3 35.2 18.4 2.9-4-18.2-21.7h-13.7z"/>
    <path d="M128 2L18.9 65v126L128 254l109.1-63V65zm66.2 170.3l-4.7 6.8a2.3 2.3 0 0 1-2.7.6l-9.9-5.1H79l-9.9 5.1a2.3 2.3 0 0 1-2.7-.6l-4.8-6.8a2.3 2.3 0 0 1 .2-2.5L79 149.5h-8.5a2 2 0 0 1-2.1-2.1v-14.9a2 2 0 0 1 2.1-2h12a60.2 60.2 0 0 1-2.3-15.7 49.2 49.2 0 0 1 49.1-48.9c26.7 0 48.8 22.2 48.8 48.9a49.8 49.8 0 0 1-2.3 15.7h12a1.9 1.9 0 0 1 2.1 2v14.9a1.9 1.9 0 0 1-2.1 2.1h-10.5l16.9 20.3a2 2 0 0 1 0 2.5z"/>
    <path d="M140.9 170.4H169l-19.7-10.3-8.4 10.3zm-37.7-20.9l17.4 20.9h14.9l17.4-20.9h-49.7zm-5.4 0H84.2L65.9 171l2.9 4.2 35-18.4-6-7.3z"/>
  </symbol>
</svg>
