<svg xmlns="http://www.w3.org/2000/svg" width="256" height="256" viewBox="0 0 256 256"><path d="M72.6 134.6h113.2v10.76H72.6zm98.9-4.1a52.1 52.1 0 0 0 2.5-15.7 44.8 44.8 0 0 0-89.6 0c0 5.3.4 10.9 2.4 15.7zm-84.4 39.9h28.1l-8.5-10.3-19.6 10.3zm71.1-20.9l-6.2 7.3 35.2 18.4 2.9-4-18.2-21.7h-13.7z"/><path d="M128 2L18.9 65v126L128 254l109.1-63V65zm66.2 170.3l-4.7 6.8a2.3 2.3 0 0 1-2.7.6l-9.9-5.1H79l-9.9 5.1a2.3 2.3 0 0 1-2.7-.6l-4.8-6.8a2.3 2.3 0 0 1 .2-2.5L79 149.5h-8.5a2 2 0 0 1-2.1-2.1v-14.9a2 2 0 0 1 2.1-2h12a60.2 60.2 0 0 1-2.3-15.7 49.2 49.2 0 0 1 49.1-48.9c26.7 0 48.8 22.2 48.8 48.9a49.8 49.8 0 0 1-2.3 15.7h12a1.9 1.9 0 0 1 2.1 2v14.9a1.9 1.9 0 0 1-2.1 2.1h-10.5l16.9 20.3a2 2 0 0 1 0 2.5z"/><path d="M140.9 170.4H169l-19.7-10.3-8.4 10.3zm-37.7-20.9l17.4 20.9h14.9l17.4-20.9h-49.7zm-5.4 0H84.2L65.9 171l2.9 4.2 35-18.4-6-7.3z"/></svg>