<svg xmlns="http://www.w3.org/2000/svg" width="256" height="256" viewBox="0 0 256 256"><path d="M128 2l109.1 63v126L128 254 18.9 191V65L128 2z"/><path fill="#fff" d="M66.4 179.1l-4.8-6.8a2.3 2.3 0 0 1 .2-2.5L79 149.5h-8.5a2 2 0 0 1-2.1-2.1v-14.9a2 2 0 0 1 2.1-2h12a60.2 60.2 0 0 1-2.3-15.7 49.2 49.2 0 0 1 49.1-48.9c26.7 0 48.8 22.2 48.8 48.9a49.8 49.8 0 0 1-2.3 15.7h12a1.9 1.9 0 0 1 2.1 2v14.9a1.9 1.9 0 0 1-2.1 2.1h-10.5l16.9 20.3a2 2 0 0 1 0 2.5l-4.7 6.8a2.3 2.3 0 0 1-2.7.6l-9.9-5.1H79l-9.9 5.1a2.3 2.3 0 0 1-2.7-.6zm31.4-29.6H84.2L65.9 171l2.9 4.2 35-18.4zm-25.2-14.9v10.8h113.2v-10.8zm14.2-4.1h84.7a52.1 52.1 0 0 0 2.5-15.7 44.8 44.8 0 0 0-89.6 0c0 5.3.4 10.9 2.4 15.7zm19.9 29.6l-19.6 10.3h28.1zm-3.5-10.6l17.4 20.9h14.9l17.4-20.9zm46.1 10.6l-8.4 10.3H169zm22.6-10.6h-13.7l-6.2 7.3 35.2 18.4 2.9-4z"/></svg>